# xmcd CD database file
#
# Track frame offsets:
#	150
#	16307
#	36750
#	71870
#	89545
#	100427
#	117852
#	127765
#	150037
#
# Disc length: 2216 seconds
#
# Revision: 0
# Processed by: cddbd v1.4PL0 Copyright (c) Steve Scherf et al.
# Submitted via: CDex 1.50Beta6
#
DISCID=6808a609
DTITLE=Alejandro Julián - Chromatic
DYEAR=1997
DGENRE=New Age
TTITLE0=45 Años
TTITLE1=Aerocomex
TTITLE2=Azul Ultramar
TTITLE3=Texturizado
TTITLE4=Igualación
TTITLE5=Enriqueto
TTITLE6=Botes
TTITLE7=Al Maestro...
TTITLE8=Epílogo
EXTD=YEAR: 1997
EXTT0=
EXTT1=
EXTT2=
EXTT3=
EXTT4=
EXTT5=
EXTT6=
EXTT7=
EXTT8=
PLAYORDER=
